<svg xmlns="http://www.w3.org/2000/svg" xmlns:xlink="http://www.w3.org/1999/xlink" width="2000" zoomAndPan="magnify" viewBox="0 0 1500 1499.999933" height="2000" preserveAspectRatio="xMidYMid meet" version="1.0"><defs><g/><clipPath id="e547c1c228"><path d="M 526.851562 342.953125 L 862.101562 342.953125 L 862.101562 678.203125 L 526.851562 678.203125 Z M 526.851562 342.953125 " clip-rule="nonzero"/></clipPath><clipPath id="a08fa0087f"><rect x="0" width="1399" y="0" height="202"/></clipPath><clipPath id="81d9a9b559"><rect x="0" width="1392" y="0" height="153"/></clipPath></defs><g clip-path="url(#e547c1c228)"><path fill="#770000" d="M 833.511719 656.386719 L 840.289062 649.609375 C 854.046875 634.257812 862.4375 614.015625 862.4375 591.894531 C 862.4375 555.320312 839.359375 523.253906 806.078125 510.734375 C 839.367188 498.234375 862.4375 466.164062 862.4375 429.59375 C 862.4375 407.472656 854.046875 387.230469 840.289062 371.878906 L 833.511719 365.09375 C 818.164062 351.34375 797.914062 342.953125 775.796875 342.953125 C 739.21875 342.953125 707.152344 366.03125 694.636719 399.3125 C 682.140625 366.023438 650.070312 342.953125 613.5 342.953125 C 591.386719 342.953125 571.136719 351.34375 555.785156 365.101562 L 549.007812 371.886719 C 535.25 387.238281 526.851562 407.480469 526.851562 429.597656 C 526.851562 466.175781 549.929688 498.242188 583.210938 510.753906 C 549.925781 523.246094 526.851562 555.324219 526.851562 591.894531 C 526.851562 614.007812 535.25 634.257812 549.007812 649.609375 L 555.785156 656.386719 C 571.136719 670.144531 591.382812 678.535156 613.5 678.535156 C 650.078125 678.535156 682.140625 655.457031 694.660156 622.179688 C 707.160156 655.464844 739.230469 678.535156 775.800781 678.535156 C 797.914062 678.542969 818.164062 670.144531 833.511719 656.386719 M 700.148438 441.21875 C 714.191406 441.21875 728.179688 441.21875 742.242188 441.21875 L 742.242188 452.175781 L 715.050781 452.175781 C 715.050781 452.179688 707.089844 453.023438 706.347656 453.195312 C 724.421875 468.839844 728.730469 495.085938 716.363281 515.59375 C 713.671875 520.0625 710.273438 524.070312 706.335938 527.476562 C 730.242188 533.117188 753.222656 514.722656 753.222656 490.339844 C 753.222656 461.226562 753.199219 432.140625 753.199219 403.042969 C 753.199219 380.335938 768.871094 360.804688 790.386719 355.375 C 743.945312 346.195312 700.148438 382.070312 700.148438 429.597656 Z M 689.148438 441.21875 L 689.15625 428.34375 C 688.816406 408.058594 680.367188 389.628906 666.917969 376.179688 C 653.203125 362.464844 634.296875 353.957031 613.496094 353.957031 C 608.507812 353.957031 603.628906 354.445312 598.902344 355.382812 C 620.417969 360.8125 636.09375 380.339844 636.09375 403.050781 L 636.09375 430.242188 L 625.09375 430.242188 L 625.09375 403.050781 C 625.09375 382.082031 607.917969 364.902344 586.945312 364.902344 C 577.871094 364.902344 569.507812 368.121094 562.933594 373.46875 C 561.957031 374.351562 561.003906 375.25 560.074219 376.179688 C 559.148438 377.109375 558.242188 378.0625 557.363281 379.039062 C 552.070312 385.214844 548.796875 394.289062 548.796875 403.050781 C 548.796875 424.019531 565.972656 441.199219 586.945312 441.199219 C 621.007812 441.195312 655.074219 441.21875 689.148438 441.21875 Z M 764.179688 516.246094 C 764.179688 530.289062 764.179688 544.28125 764.179688 558.339844 L 753.222656 558.339844 L 753.222656 531.148438 C 753.214844 531.148438 752.375 523.183594 752.199219 522.445312 C 732.457031 545.25 697.476562 545.0625 677.910156 522.433594 C 677.25 525.234375 676.902344 528.15625 676.902344 531.152344 L 676.878906 531.152344 C 676.878906 552.097656 694.105469 569.320312 715.050781 569.320312 C 744.164062 569.320312 773.25 569.304688 802.34375 569.304688 C 825.054688 569.304688 844.585938 584.976562 850.011719 606.492188 C 859.195312 560.050781 823.324219 516.253906 775.789062 516.253906 L 764.179688 516.253906 Z M 764.179688 505.25 L 777.050781 505.253906 C 797.335938 504.921875 815.769531 496.46875 829.214844 483.019531 C 846.90625 465.328125 854.953125 439.984375 850.019531 415 C 844.589844 436.519531 825.058594 452.191406 802.351562 452.191406 L 775.160156 452.191406 L 775.160156 441.1875 L 802.351562 441.1875 C 823.320312 441.1875 840.5 424.011719 840.5 403.039062 C 840.5 393.964844 837.28125 385.601562 831.933594 379.03125 C 831.050781 378.054688 830.148438 377.105469 829.222656 376.175781 C 828.292969 375.246094 827.339844 374.339844 826.363281 373.464844 C 820.1875 368.167969 811.105469 364.894531 802.351562 364.894531 C 781.382812 364.894531 764.203125 382.070312 764.203125 403.042969 C 764.203125 437.101562 764.179688 471.171875 764.179688 505.25 Z M 689.148438 580.277344 C 675.105469 580.277344 661.109375 580.277344 647.054688 580.277344 L 647.054688 569.320312 L 674.246094 569.320312 C 674.246094 569.316406 682.207031 568.472656 682.949219 568.296875 C 672.472656 559.222656 665.925781 545.898438 665.925781 531.152344 L 665.902344 531.152344 C 665.902344 516.683594 672.285156 503.25 682.960938 494.015625 C 659.101562 488.394531 636.074219 506.722656 636.074219 531.152344 C 636.074219 560.269531 636.09375 589.351562 636.09375 618.457031 C 636.09375 641.164062 620.417969 660.695312 598.902344 666.125 C 645.359375 675.300781 689.144531 639.421875 689.144531 591.902344 L 689.144531 580.277344 Z M 700.148438 580.277344 L 700.140625 593.152344 C 700.480469 613.4375 708.929688 631.867188 722.378906 645.3125 C 736.09375 659.03125 755.003906 667.539062 775.800781 667.539062 C 780.785156 667.539062 785.667969 667.046875 790.394531 666.113281 C 768.878906 660.683594 753.203125 641.152344 753.203125 618.445312 L 753.203125 591.257812 L 764.207031 591.257812 L 764.207031 618.449219 C 764.207031 639.417969 781.382812 656.597656 802.355469 656.597656 C 811.433594 656.597656 819.792969 653.378906 826.367188 648.03125 C 827.34375 647.148438 828.296875 646.25 829.226562 645.320312 C 830.15625 644.390625 831.0625 643.4375 831.9375 642.460938 C 837.234375 636.285156 840.503906 627.210938 840.503906 618.449219 C 840.503906 597.480469 823.332031 580.300781 802.355469 580.300781 C 768.292969 580.300781 734.222656 580.277344 700.148438 580.277344 Z M 625.117188 505.25 C 625.117188 491.210938 625.117188 477.214844 625.117188 463.15625 L 636.074219 463.15625 L 636.074219 490.347656 C 636.082031 490.347656 636.921875 498.3125 637.097656 499.046875 C 652.742188 480.972656 678.988281 476.671875 699.492188 489.03125 C 703.964844 491.726562 707.972656 495.121094 711.378906 499.058594 C 717.007812 475.203125 698.679688 452.175781 674.242188 452.175781 C 645.128906 452.175781 616.035156 452.191406 586.941406 452.191406 C 564.230469 452.191406 544.699219 436.519531 539.273438 415 C 530.097656 461.460938 565.972656 505.242188 613.496094 505.242188 L 625.117188 505.242188 Z M 560.082031 538.46875 C 573.527344 525.023438 591.960938 516.574219 612.242188 516.234375 L 625.117188 516.242188 C 625.117188 550.308594 625.09375 584.375 625.09375 618.445312 C 625.09375 639.410156 607.917969 656.59375 586.945312 656.59375 C 578.191406 656.59375 569.109375 653.320312 562.933594 648.027344 C 561.957031 647.144531 561.003906 646.242188 560.074219 645.3125 C 559.148438 644.386719 558.242188 643.433594 557.363281 642.457031 C 552.011719 635.886719 548.796875 627.519531 548.796875 618.449219 C 548.796875 597.476562 565.972656 580.300781 586.945312 580.300781 L 614.136719 580.300781 L 614.136719 569.304688 L 586.945312 569.304688 C 564.238281 569.304688 544.707031 584.976562 539.277344 606.492188 C 538.34375 601.765625 537.851562 596.890625 537.851562 591.902344 C 537.855469 571.097656 546.367188 552.1875 560.082031 538.46875 Z M 560.082031 538.46875 " fill-opacity="1" fill-rule="evenodd"/></g><g transform="matrix(1, 0, 0, 1, 79, 794)"><g clip-path="url(#a08fa0087f)"><g fill="#770000" fill-opacity="1"><g transform="translate(3.668469, 151.52084)"><g><path d="M 52.28125 0 C 46.832031 0 41.378906 -0.5 35.921875 -1.5 C 30.460938 -2.5 25.273438 -4.128906 20.359375 -6.390625 C 17.160156 -7.847656 13.863281 -9.804688 10.46875 -12.265625 C 7.082031 -14.734375 4.257812 -17.628906 2 -20.953125 C -0.257812 -24.273438 -1.390625 -27.867188 -1.390625 -31.734375 C -1.390625 -36.117188 0.0703125 -39.804688 3 -42.796875 C 5.925781 -45.796875 10.179688 -47.296875 15.765625 -47.296875 C 13.640625 -41.046875 13.207031 -35.160156 14.46875 -29.640625 C 15.726562 -24.117188 18.222656 -19.359375 21.953125 -15.359375 C 26.210938 -10.835938 31.597656 -7.578125 38.109375 -5.578125 C 44.628906 -3.585938 51.484375 -2.757812 58.671875 -3.09375 C 65.859375 -3.425781 72.675781 -4.789062 79.125 -7.1875 C 85.582031 -9.582031 90.867188 -12.773438 94.984375 -16.765625 C 99.378906 -21.148438 102.078125 -25.738281 103.078125 -30.53125 C 104.078125 -35.320312 103.675781 -39.976562 101.875 -44.5 C 100.082031 -49.019531 97.15625 -53.078125 93.09375 -56.671875 C 89.039062 -60.265625 84.21875 -63.0625 78.625 -65.0625 C 73.175781 -67.050781 67.15625 -68.609375 60.5625 -69.734375 C 53.976562 -70.867188 47.359375 -72.132812 40.703125 -73.53125 C 34.054688 -74.9375 27.835938 -76.9375 22.046875 -79.53125 C 16.265625 -82.125 11.378906 -85.8125 7.390625 -90.59375 C 3.265625 -95.65625 0.867188 -101.441406 0.203125 -107.953125 C -0.460938 -114.472656 0.664062 -120.53125 3.59375 -126.125 C 5.988281 -130.914062 9.347656 -134.835938 13.671875 -137.890625 C 17.992188 -140.953125 22.78125 -143.347656 28.03125 -145.078125 C 33.289062 -146.804688 38.679688 -148.003906 44.203125 -148.671875 C 49.722656 -149.335938 54.878906 -149.671875 59.671875 -149.671875 C 65.117188 -149.671875 70.570312 -149.171875 76.03125 -148.171875 C 81.488281 -147.171875 86.675781 -145.539062 91.59375 -143.28125 C 94.789062 -141.820312 98.082031 -139.828125 101.46875 -137.296875 C 104.863281 -134.765625 107.691406 -131.867188 109.953125 -128.609375 C 112.210938 -125.359375 113.34375 -121.800781 113.34375 -117.9375 C 113.34375 -113.414062 111.878906 -109.65625 108.953125 -106.65625 C 106.035156 -103.664062 101.78125 -102.238281 96.1875 -102.375 C 98.1875 -107.957031 98.753906 -113.273438 97.890625 -118.328125 C 97.023438 -123.390625 95.0625 -127.851562 92 -131.71875 C 88.675781 -136.238281 84.148438 -139.695312 78.421875 -142.09375 C 72.703125 -144.488281 66.550781 -145.914062 59.96875 -146.375 C 53.382812 -146.84375 47.03125 -146.34375 40.90625 -144.875 C 36.382812 -143.945312 31.960938 -142.316406 27.640625 -139.984375 C 23.316406 -137.660156 19.65625 -134.703125 16.65625 -131.109375 C 13.664062 -127.515625 11.90625 -123.191406 11.375 -118.140625 C 10.84375 -112.554688 12.039062 -107.929688 14.96875 -104.265625 C 17.894531 -100.609375 21.785156 -97.679688 26.640625 -95.484375 C 31.492188 -93.296875 36.453125 -91.535156 41.515625 -90.203125 C 47.765625 -88.734375 54.476562 -87.429688 61.65625 -86.296875 C 68.84375 -85.171875 75.863281 -83.609375 82.71875 -81.609375 C 89.570312 -79.617188 95.523438 -76.5625 100.578125 -72.4375 C 105.503906 -68.445312 109.226562 -63.757812 111.75 -58.375 C 114.28125 -52.988281 115.476562 -47.398438 115.34375 -41.609375 C 115.207031 -35.816406 113.742188 -30.257812 110.953125 -24.9375 C 108.160156 -19.625 103.972656 -15.101562 98.390625 -11.375 C 91.867188 -6.988281 84.382812 -3.992188 75.9375 -2.390625 C 67.488281 -0.796875 59.601562 0 52.28125 0 Z M 52.28125 0 "/></g></g></g><g fill="#770000" fill-opacity="1"><g transform="translate(133.78304, 151.52084)"><g><path d="M 0 -149.671875 L 72.234375 -149.671875 C 79.421875 -149.671875 86.109375 -148.109375 92.296875 -144.984375 C 98.484375 -141.859375 103.503906 -137.429688 107.359375 -131.703125 C 111.222656 -125.984375 113.15625 -119.066406 113.15625 -110.953125 C 113.15625 -102.304688 111.023438 -95.125 106.765625 -89.40625 C 102.503906 -83.6875 96.945312 -79.425781 90.09375 -76.625 C 83.25 -73.832031 75.832031 -72.4375 67.84375 -72.4375 C 71.039062 -70.976562 73.703125 -68.648438 75.828125 -65.453125 C 79.953125 -60.003906 83.644531 -54.082031 86.90625 -47.6875 C 90.164062 -41.300781 93.289062 -34.984375 96.28125 -28.734375 C 99.28125 -22.484375 102.3125 -16.832031 105.375 -11.78125 C 106.300781 -10.3125 107.726562 -8.242188 109.65625 -5.578125 C 111.582031 -2.921875 113.347656 -1.0625 114.953125 0 L 99.578125 0 C 96.785156 0 94.722656 -0.429688 93.390625 -1.296875 C 92.066406 -2.160156 90.9375 -3.390625 90 -4.984375 C 84.945312 -14.296875 80.320312 -23.34375 76.125 -32.125 C 71.9375 -40.90625 66.847656 -49.953125 60.859375 -59.265625 C 52.484375 -72.035156 42.640625 -73.765625 31.328125 -64.453125 L 29.734375 -66.25 C 33.460938 -69.445312 37.085938 -71.644531 40.609375 -72.84375 C 44.140625 -74.039062 47.832031 -74.738281 51.6875 -74.9375 C 55.539062 -75.132812 59.664062 -75.367188 64.0625 -75.640625 C 75.101562 -76.296875 83.25 -79.816406 88.5 -86.203125 C 93.757812 -92.597656 96.390625 -100.847656 96.390625 -110.953125 C 96.390625 -118.003906 94.691406 -124.191406 91.296875 -129.515625 C 87.910156 -134.835938 83.519531 -138.992188 78.125 -141.984375 C 72.738281 -144.984375 66.984375 -146.484375 60.859375 -146.484375 L 16.5625 -146.484375 L 16.5625 0 L 0 0 Z M 0 -149.671875 "/></g></g></g><g fill="#770000" fill-opacity="1"><g transform="translate(260.305491, 151.52084)"><g><path d="M 0 0 L 0 -149.671875 L 16.5625 -149.671875 L 16.5625 0 Z M 0 0 "/></g></g></g><g fill="#770000" fill-opacity="1"><g transform="translate(292.441579, 151.52084)"><g/></g></g><g fill="#770000" fill-opacity="1"><g transform="translate(333.750952, 151.52084)"><g/></g></g><g fill="#770000" fill-opacity="1"><g transform="translate(375.063039, 151.52084)"><g><path d="M 0 -149.671875 L 106.765625 -149.671875 L 106.765625 -132.90625 C 100.109375 -134.375 93.65625 -135.90625 87.40625 -137.5 C 81.15625 -139.09375 74.632812 -140.554688 67.84375 -141.890625 C 61.0625 -143.222656 53.515625 -144.320312 45.203125 -145.1875 C 36.890625 -146.050781 27.34375 -146.484375 16.5625 -146.484375 L 16.5625 -85.21875 C 20.019531 -89.46875 24.207031 -92.390625 29.125 -93.984375 C 34.050781 -95.585938 38.976562 -95.859375 43.90625 -94.796875 C 47.226562 -94.128906 50.484375 -93.0625 53.671875 -91.59375 C 56.867188 -90.132812 60.0625 -88.707031 63.25 -87.3125 C 66.445312 -85.914062 69.773438 -84.953125 73.234375 -84.421875 C 76.296875 -83.878906 79.390625 -83.941406 82.515625 -84.609375 C 85.640625 -85.273438 87.601562 -87.671875 88.40625 -91.796875 C 90 -84.609375 89.5 -79.050781 86.90625 -75.125 C 84.3125 -71.207031 80.554688 -68.914062 75.640625 -68.25 C 70.847656 -67.71875 66.289062 -68.382812 61.96875 -70.25 C 57.644531 -72.113281 53.484375 -74.40625 49.484375 -77.125 C 45.492188 -79.851562 41.570312 -82.179688 37.71875 -84.109375 C 33.863281 -86.046875 30.003906 -86.8125 26.140625 -86.40625 C 23.742188 -86.144531 21.546875 -85.28125 19.546875 -83.8125 C 17.554688 -82.351562 16.5625 -80.160156 16.5625 -77.234375 L 16.5625 0 L 0 0 Z M 0 -149.671875 "/></g></g></g><g fill="#770000" fill-opacity="1"><g transform="translate(496.796002, 151.52084)"><g><path d="M 66.25 -149.671875 L 133.3125 0 L 115.140625 0 L 90.40625 -54.875 C 90.40625 -47.957031 89.304688 -41.207031 87.109375 -34.625 C 84.910156 -28.039062 81.679688 -22.15625 77.421875 -16.96875 C 73.171875 -11.78125 67.914062 -7.65625 61.65625 -4.59375 C 55.40625 -1.53125 48.222656 0 40.109375 0 C 31.328125 0 23.8125 -1.894531 17.5625 -5.6875 C 11.3125 -9.476562 6.65625 -14.664062 3.59375 -21.25 C 0.53125 -27.832031 -0.53125 -35.316406 0.40625 -43.703125 C 1.0625 -49.828125 2.617188 -55.78125 5.078125 -61.5625 C 7.546875 -67.351562 10.441406 -72.972656 13.765625 -78.421875 C 17.097656 -83.878906 20.425781 -89.070312 23.75 -94 C 27.875 -100.113281 31.566406 -105.960938 34.828125 -111.546875 C 38.085938 -117.140625 40.847656 -123.03125 43.109375 -129.21875 C 45.367188 -135.40625 46.960938 -142.222656 47.890625 -149.671875 Z M 85.8125 -65.0625 L 50.296875 -144.28125 C 48.828125 -136.03125 46.460938 -128.210938 43.203125 -120.828125 C 39.941406 -113.453125 36.1875 -106.035156 31.9375 -98.578125 C 29.007812 -93.253906 25.945312 -87.566406 22.75 -81.515625 C 19.550781 -75.460938 16.953125 -69.273438 14.953125 -62.953125 C 12.960938 -56.640625 12.300781 -50.289062 12.96875 -43.90625 C 13.632812 -37.382812 15.726562 -31.628906 19.25 -26.640625 C 22.78125 -21.648438 27.472656 -18.023438 33.328125 -15.765625 C 39.179688 -13.503906 45.96875 -13.039062 53.6875 -14.375 C 58.601562 -15.164062 63.421875 -17.359375 68.140625 -20.953125 C 72.867188 -24.546875 76.925781 -28.867188 80.3125 -33.921875 C 83.707031 -38.984375 86.003906 -44.238281 87.203125 -49.6875 C 88.398438 -55.144531 87.9375 -60.269531 85.8125 -65.0625 Z M 85.8125 -65.0625 "/></g></g></g><g fill="#770000" fill-opacity="1"><g transform="translate(639.083862, 151.52084)"><g><path d="M 52.28125 0 C 46.832031 0 41.378906 -0.5 35.921875 -1.5 C 30.460938 -2.5 25.273438 -4.128906 20.359375 -6.390625 C 17.160156 -7.847656 13.863281 -9.804688 10.46875 -12.265625 C 7.082031 -14.734375 4.257812 -17.628906 2 -20.953125 C -0.257812 -24.273438 -1.390625 -27.867188 -1.390625 -31.734375 C -1.390625 -36.117188 0.0703125 -39.804688 3 -42.796875 C 5.925781 -45.796875 10.179688 -47.296875 15.765625 -47.296875 C 13.640625 -41.046875 13.207031 -35.160156 14.46875 -29.640625 C 15.726562 -24.117188 18.222656 -19.359375 21.953125 -15.359375 C 26.210938 -10.835938 31.597656 -7.578125 38.109375 -5.578125 C 44.628906 -3.585938 51.484375 -2.757812 58.671875 -3.09375 C 65.859375 -3.425781 72.675781 -4.789062 79.125 -7.1875 C 85.582031 -9.582031 90.867188 -12.773438 94.984375 -16.765625 C 99.378906 -21.148438 102.078125 -25.738281 103.078125 -30.53125 C 104.078125 -35.320312 103.675781 -39.976562 101.875 -44.5 C 100.082031 -49.019531 97.15625 -53.078125 93.09375 -56.671875 C 89.039062 -60.265625 84.21875 -63.0625 78.625 -65.0625 C 73.175781 -67.050781 67.15625 -68.609375 60.5625 -69.734375 C 53.976562 -70.867188 47.359375 -72.132812 40.703125 -73.53125 C 34.054688 -74.9375 27.835938 -76.9375 22.046875 -79.53125 C 16.265625 -82.125 11.378906 -85.8125 7.390625 -90.59375 C 3.265625 -95.65625 0.867188 -101.441406 0.203125 -107.953125 C -0.460938 -114.472656 0.664062 -120.53125 3.59375 -126.125 C 5.988281 -130.914062 9.347656 -134.835938 13.671875 -137.890625 C 17.992188 -140.953125 22.78125 -143.347656 28.03125 -145.078125 C 33.289062 -146.804688 38.679688 -148.003906 44.203125 -148.671875 C 49.722656 -149.335938 54.878906 -149.671875 59.671875 -149.671875 C 65.117188 -149.671875 70.570312 -149.171875 76.03125 -148.171875 C 81.488281 -147.171875 86.675781 -145.539062 91.59375 -143.28125 C 94.789062 -141.820312 98.082031 -139.828125 101.46875 -137.296875 C 104.863281 -134.765625 107.691406 -131.867188 109.953125 -128.609375 C 112.210938 -125.359375 113.34375 -121.800781 113.34375 -117.9375 C 113.34375 -113.414062 111.878906 -109.65625 108.953125 -106.65625 C 106.035156 -103.664062 101.78125 -102.238281 96.1875 -102.375 C 98.1875 -107.957031 98.753906 -113.273438 97.890625 -118.328125 C 97.023438 -123.390625 95.0625 -127.851562 92 -131.71875 C 88.675781 -136.238281 84.148438 -139.695312 78.421875 -142.09375 C 72.703125 -144.488281 66.550781 -145.914062 59.96875 -146.375 C 53.382812 -146.84375 47.03125 -146.34375 40.90625 -144.875 C 36.382812 -143.945312 31.960938 -142.316406 27.640625 -139.984375 C 23.316406 -137.660156 19.65625 -134.703125 16.65625 -131.109375 C 13.664062 -127.515625 11.90625 -123.191406 11.375 -118.140625 C 10.84375 -112.554688 12.039062 -107.929688 14.96875 -104.265625 C 17.894531 -100.609375 21.785156 -97.679688 26.640625 -95.484375 C 31.492188 -93.296875 36.453125 -91.535156 41.515625 -90.203125 C 47.765625 -88.734375 54.476562 -87.429688 61.65625 -86.296875 C 68.84375 -85.171875 75.863281 -83.609375 82.71875 -81.609375 C 89.570312 -79.617188 95.523438 -76.5625 100.578125 -72.4375 C 105.503906 -68.445312 109.226562 -63.757812 111.75 -58.375 C 114.28125 -52.988281 115.476562 -47.398438 115.34375 -41.609375 C 115.207031 -35.816406 113.742188 -30.257812 110.953125 -24.9375 C 108.160156 -19.625 103.972656 -15.101562 98.390625 -11.375 C 91.867188 -6.988281 84.382812 -3.992188 75.9375 -2.390625 C 67.488281 -0.796875 59.601562 0 52.28125 0 Z M 52.28125 0 "/></g></g></g><g fill="#770000" fill-opacity="1"><g transform="translate(769.198414, 151.52084)"><g><path d="M 16.5625 -85.40625 C 19.625 -89.132812 23.414062 -91.765625 27.9375 -93.296875 C 32.457031 -94.828125 37.046875 -95.457031 41.703125 -95.1875 C 46.765625 -94.925781 51.6875 -93.828125 56.46875 -91.890625 C 61.257812 -89.960938 66.050781 -88.035156 70.84375 -86.109375 C 75.632812 -84.179688 80.554688 -82.953125 85.609375 -82.421875 C 89.335938 -82.148438 92.628906 -82.847656 95.484375 -84.515625 C 98.347656 -86.179688 99.78125 -89.007812 99.78125 -93 L 99.78125 -149.671875 L 116.34375 -149.671875 L 116.34375 0 L 99.78125 0 L 99.78125 -83.421875 C 98.050781 -78.492188 95.125 -74.863281 91 -72.53125 C 86.875 -70.207031 82.414062 -68.976562 77.625 -68.84375 C 72.707031 -68.71875 68.117188 -69.519531 63.859375 -71.25 C 59.597656 -72.976562 55.539062 -75.003906 51.6875 -77.328125 C 47.832031 -79.660156 44.007812 -81.722656 40.21875 -83.515625 C 36.425781 -85.316406 32.46875 -86.21875 28.34375 -86.21875 C 25.8125 -86.21875 23.210938 -85.617188 20.546875 -84.421875 C 17.890625 -83.222656 16.5625 -81.09375 16.5625 -78.03125 L 16.5625 0 L 0 0 L 0 -149.671875 L 16.5625 -149.671875 Z M 16.5625 -85.40625 "/></g></g></g><g fill="#770000" fill-opacity="1"><g transform="translate(901.308624, 151.52084)"><g><path d="M 0 0 L 0 -149.671875 L 16.5625 -149.671875 L 16.5625 0 Z M 0 0 "/></g></g></g><g fill="#770000" fill-opacity="1"><g transform="translate(933.438118, 151.52084)"><g><path d="M 72.4375 -149.671875 C 82.414062 -149.671875 91.796875 -147.738281 100.578125 -143.875 C 109.359375 -140.019531 117.070312 -134.664062 123.71875 -127.8125 C 130.375 -120.96875 135.5625 -113.019531 139.28125 -103.96875 C 143.007812 -94.925781 144.875 -85.21875 144.875 -74.84375 C 144.875 -64.457031 143.007812 -54.738281 139.28125 -45.6875 C 135.5625 -36.644531 130.375 -28.695312 123.71875 -21.84375 C 117.070312 -15 109.359375 -9.644531 100.578125 -5.78125 C 91.796875 -1.925781 82.414062 0 72.4375 0 C 62.457031 0 53.078125 -1.925781 44.296875 -5.78125 C 35.515625 -9.644531 27.832031 -15 21.25 -21.84375 C 14.664062 -28.695312 9.476562 -36.644531 5.6875 -45.6875 C 1.894531 -54.738281 0 -64.457031 0 -74.84375 C 0 -85.21875 1.894531 -94.925781 5.6875 -103.96875 C 9.476562 -113.019531 14.664062 -120.96875 21.25 -127.8125 C 27.832031 -134.664062 35.515625 -140.019531 44.296875 -143.875 C 53.078125 -147.738281 62.457031 -149.671875 72.4375 -149.671875 Z M 72.4375 -146.484375 C 64.71875 -146.484375 57.5 -144.617188 50.78125 -140.890625 C 44.0625 -137.160156 38.140625 -132.003906 33.015625 -125.421875 C 27.898438 -118.835938 23.878906 -111.222656 20.953125 -102.578125 C 18.023438 -93.929688 16.5625 -84.6875 16.5625 -74.84375 C 16.5625 -64.863281 18.023438 -55.546875 20.953125 -46.890625 C 23.878906 -38.242188 27.898438 -30.628906 33.015625 -24.046875 C 38.140625 -17.460938 44.0625 -12.304688 50.78125 -8.578125 C 57.5 -4.859375 64.71875 -3 72.4375 -3 C 80.15625 -3 87.40625 -4.859375 94.1875 -8.578125 C 100.976562 -12.304688 106.929688 -17.460938 112.046875 -24.046875 C 117.171875 -30.628906 121.160156 -38.242188 124.015625 -46.890625 C 126.878906 -55.546875 128.3125 -64.863281 128.3125 -74.84375 C 128.3125 -84.6875 126.878906 -93.929688 124.015625 -102.578125 C 121.160156 -111.222656 117.171875 -118.835938 112.046875 -125.421875 C 106.929688 -132.003906 100.976562 -137.160156 94.1875 -140.890625 C 87.40625 -144.617188 80.15625 -146.484375 72.4375 -146.484375 Z M 72.4375 -146.484375 "/></g></g></g><g fill="#770000" fill-opacity="1"><g transform="translate(1093.886142, 151.52084)"><g><path d="M 116.34375 0 L 113.34375 0 C 113.21875 -6.519531 111.15625 -13.867188 107.15625 -22.046875 C 103.164062 -30.234375 97.878906 -38.914062 91.296875 -48.09375 C 84.710938 -57.269531 77.460938 -66.546875 69.546875 -75.921875 C 61.628906 -85.304688 53.546875 -94.390625 45.296875 -103.171875 C 37.046875 -111.953125 29.226562 -120.066406 21.84375 -127.515625 C 14.46875 -134.972656 8.1875 -141.296875 3 -146.484375 C 3.125 -129.054688 3.617188 -113.625 4.484375 -100.1875 C 5.347656 -86.75 6.445312 -74.503906 7.78125 -63.453125 C 9.113281 -52.410156 10.578125 -41.800781 12.171875 -31.625 C 13.765625 -21.445312 15.226562 -10.90625 16.5625 0 L 0 0 L 0 -149.671875 L 22.15625 -149.671875 C 32.132812 -139.554688 42.441406 -129.007812 53.078125 -118.03125 C 63.722656 -107.0625 74.132812 -95.722656 84.3125 -84.015625 C 94.488281 -72.304688 103.703125 -60.203125 111.953125 -47.703125 C 111.148438 -61.671875 110.050781 -74.238281 108.65625 -85.40625 C 107.257812 -96.582031 105.796875 -107.328125 104.265625 -117.640625 C 102.734375 -127.953125 101.238281 -138.628906 99.78125 -149.671875 L 116.34375 -149.671875 Z M 116.34375 0 "/></g></g></g><g fill="#770000" fill-opacity="1"><g transform="translate(1225.597197, 151.52084)"><g><path d="M 52.28125 0 C 46.832031 0 41.378906 -0.5 35.921875 -1.5 C 30.460938 -2.5 25.273438 -4.128906 20.359375 -6.390625 C 17.160156 -7.847656 13.863281 -9.804688 10.46875 -12.265625 C 7.082031 -14.734375 4.257812 -17.628906 2 -20.953125 C -0.257812 -24.273438 -1.390625 -27.867188 -1.390625 -31.734375 C -1.390625 -36.117188 0.0703125 -39.804688 3 -42.796875 C 5.925781 -45.796875 10.179688 -47.296875 15.765625 -47.296875 C 13.640625 -41.046875 13.207031 -35.160156 14.46875 -29.640625 C 15.726562 -24.117188 18.222656 -19.359375 21.953125 -15.359375 C 26.210938 -10.835938 31.597656 -7.578125 38.109375 -5.578125 C 44.628906 -3.585938 51.484375 -2.757812 58.671875 -3.09375 C 65.859375 -3.425781 72.675781 -4.789062 79.125 -7.1875 C 85.582031 -9.582031 90.867188 -12.773438 94.984375 -16.765625 C 99.378906 -21.148438 102.078125 -25.738281 103.078125 -30.53125 C 104.078125 -35.320312 103.675781 -39.976562 101.875 -44.5 C 100.082031 -49.019531 97.15625 -53.078125 93.09375 -56.671875 C 89.039062 -60.265625 84.21875 -63.0625 78.625 -65.0625 C 73.175781 -67.050781 67.15625 -68.609375 60.5625 -69.734375 C 53.976562 -70.867188 47.359375 -72.132812 40.703125 -73.53125 C 34.054688 -74.9375 27.835938 -76.9375 22.046875 -79.53125 C 16.265625 -82.125 11.378906 -85.8125 7.390625 -90.59375 C 3.265625 -95.65625 0.867188 -101.441406 0.203125 -107.953125 C -0.460938 -114.472656 0.664062 -120.53125 3.59375 -126.125 C 5.988281 -130.914062 9.347656 -134.835938 13.671875 -137.890625 C 17.992188 -140.953125 22.78125 -143.347656 28.03125 -145.078125 C 33.289062 -146.804688 38.679688 -148.003906 44.203125 -148.671875 C 49.722656 -149.335938 54.878906 -149.671875 59.671875 -149.671875 C 65.117188 -149.671875 70.570312 -149.171875 76.03125 -148.171875 C 81.488281 -147.171875 86.675781 -145.539062 91.59375 -143.28125 C 94.789062 -141.820312 98.082031 -139.828125 101.46875 -137.296875 C 104.863281 -134.765625 107.691406 -131.867188 109.953125 -128.609375 C 112.210938 -125.359375 113.34375 -121.800781 113.34375 -117.9375 C 113.34375 -113.414062 111.878906 -109.65625 108.953125 -106.65625 C 106.035156 -103.664062 101.78125 -102.238281 96.1875 -102.375 C 98.1875 -107.957031 98.753906 -113.273438 97.890625 -118.328125 C 97.023438 -123.390625 95.0625 -127.851562 92 -131.71875 C 88.675781 -136.238281 84.148438 -139.695312 78.421875 -142.09375 C 72.703125 -144.488281 66.550781 -145.914062 59.96875 -146.375 C 53.382812 -146.84375 47.03125 -146.34375 40.90625 -144.875 C 36.382812 -143.945312 31.960938 -142.316406 27.640625 -139.984375 C 23.316406 -137.660156 19.65625 -134.703125 16.65625 -131.109375 C 13.664062 -127.515625 11.90625 -123.191406 11.375 -118.140625 C 10.84375 -112.554688 12.039062 -107.929688 14.96875 -104.265625 C 17.894531 -100.609375 21.785156 -97.679688 26.640625 -95.484375 C 31.492188 -93.296875 36.453125 -91.535156 41.515625 -90.203125 C 47.765625 -88.734375 54.476562 -87.429688 61.65625 -86.296875 C 68.84375 -85.171875 75.863281 -83.609375 82.71875 -81.609375 C 89.570312 -79.617188 95.523438 -76.5625 100.578125 -72.4375 C 105.503906 -68.445312 109.226562 -63.757812 111.75 -58.375 C 114.28125 -52.988281 115.476562 -47.398438 115.34375 -41.609375 C 115.207031 -35.816406 113.742188 -30.257812 110.953125 -24.9375 C 108.160156 -19.625 103.972656 -15.101562 98.390625 -11.375 C 91.867188 -6.988281 84.382812 -3.992188 75.9375 -2.390625 C 67.488281 -0.796875 59.601562 0 52.28125 0 Z M 52.28125 0 "/></g></g></g><g fill="#770000" fill-opacity="1"><g transform="translate(1355.714935, 151.52084)"><g/></g></g></g></g><g transform="matrix(1, 0, 0, 1, 102, 1009)"><g clip-path="url(#81d9a9b559)"><g fill="#000000" fill-opacity="1"><g transform="translate(0.827183, 118.946665)"><g><path d="M 6.53125 -3.921875 C 9.289062 -3.992188 11.265625 -4.625 12.453125 -5.8125 C 13.640625 -7 14.3125 -8.441406 14.46875 -10.140625 C 14.625 -11.835938 14.703125 -14.820312 14.703125 -19.09375 L 14.703125 -68.90625 C 14.703125 -73.175781 14.820312 -76.300781 15.0625 -78.28125 L 6.53125 -77.8125 L 6.53125 -83.03125 C 18.070312 -83.1875 27.003906 -83.265625 33.328125 -83.265625 C 42.660156 -83.265625 49.835938 -81.625 54.859375 -78.34375 C 59.878906 -75.0625 62.390625 -70.097656 62.390625 -63.453125 C 62.390625 -59.179688 60.707031 -55.242188 57.34375 -51.640625 C 53.988281 -48.046875 49.144531 -45.695312 42.8125 -44.59375 L 42.8125 -44.359375 C 51.28125 -44.359375 57.785156 -42.421875 62.328125 -38.546875 C 66.878906 -34.671875 69.15625 -29.570312 69.15625 -23.25 C 69.15625 -18.5 67.945312 -14.363281 65.53125 -10.84375 C 63.125 -7.332031 59.800781 -4.644531 55.5625 -2.78125 C 51.332031 -0.925781 46.53125 0 41.15625 0 L 6.53125 0 Z M 33.6875 -45.671875 C 39.9375 -45.742188 44.484375 -47.457031 47.328125 -50.8125 C 50.171875 -54.175781 51.59375 -58.3125 51.59375 -63.21875 C 51.59375 -69.144531 49.875 -73.253906 46.4375 -75.546875 C 43 -77.847656 38.828125 -79 33.921875 -79 C 31.390625 -79 29.488281 -78.640625 28.21875 -77.921875 C 26.957031 -77.210938 26.109375 -76.066406 25.671875 -74.484375 C 25.242188 -72.898438 25.03125 -70.566406 25.03125 -67.484375 L 25.03125 -45.421875 Z M 37.25 -4.5 C 43.488281 -4.5 48.445312 -6.0625 52.125 -9.1875 C 55.800781 -12.3125 57.640625 -16.757812 57.640625 -22.53125 C 57.640625 -29.257812 55.757812 -34.046875 52 -36.890625 C 48.25 -39.734375 43.332031 -41.15625 37.25 -41.15625 C 32.894531 -41.15625 28.820312 -41.035156 25.03125 -40.796875 L 25.03125 -14 C 25.03125 -9.882812 24.910156 -6.800781 24.671875 -4.75 C 26.171875 -4.582031 29.015625 -4.5 33.203125 -4.5 Z M 37.25 -4.5 "/></g></g></g><g fill="#000000" fill-opacity="1"><g transform="translate(169.480307, 118.946665)"><g><path d="M 47.6875 1.890625 C 38.195312 1.890625 30.285156 -0.203125 23.953125 -4.390625 C 17.628906 -8.578125 12.960938 -13.972656 9.953125 -20.578125 C 6.953125 -27.179688 5.453125 -34.160156 5.453125 -41.515625 C 5.453125 -48.546875 7.015625 -55.382812 10.140625 -62.03125 C 13.265625 -68.675781 17.929688 -74.148438 24.140625 -78.453125 C 30.347656 -82.765625 37.878906 -84.921875 46.734375 -84.921875 C 55.828125 -84.921875 63.554688 -82.765625 69.921875 -78.453125 C 76.285156 -74.148438 81.046875 -68.675781 84.203125 -62.03125 C 87.367188 -55.382812 88.953125 -48.546875 88.953125 -41.515625 C 88.953125 -34.554688 87.390625 -27.734375 84.265625 -21.046875 C 81.148438 -14.367188 76.488281 -8.875 70.28125 -4.5625 C 64.070312 -0.257812 56.539062 1.890625 47.6875 1.890625 Z M 47.921875 -2.96875 C 54.085938 -2.96875 59.363281 -4.722656 63.75 -8.234375 C 68.132812 -11.753906 71.453125 -16.28125 73.703125 -21.8125 C 75.960938 -27.351562 77.09375 -33.171875 77.09375 -39.265625 C 77.09375 -45.984375 75.867188 -52.484375 73.421875 -58.765625 C 70.972656 -65.054688 67.414062 -70.195312 62.75 -74.1875 C 58.082031 -78.1875 52.625 -80.1875 46.375 -80.1875 C 40.207031 -80.1875 34.910156 -78.425781 30.484375 -74.90625 C 26.054688 -71.382812 22.710938 -66.816406 20.453125 -61.203125 C 18.203125 -55.585938 17.078125 -49.734375 17.078125 -43.640625 C 17.078125 -37.398438 18.222656 -31.132812 20.515625 -24.84375 C 22.804688 -18.5625 26.285156 -13.34375 30.953125 -9.1875 C 35.617188 -5.039062 41.273438 -2.96875 47.921875 -2.96875 Z M 47.921875 -2.96875 "/></g></g></g><g fill="#000000" fill-opacity="1"><g transform="translate(358.532328, 118.946665)"><g><path d="M 45.1875 1.890625 C 36.8125 1.890625 30.191406 0.410156 25.328125 -2.546875 C 20.460938 -5.515625 16.984375 -10.0625 14.890625 -16.1875 C 12.796875 -22.3125 11.75 -30.398438 11.75 -40.453125 L 11.75 -64.53125 C 11.75 -69.582031 11.90625 -74.164062 12.21875 -78.28125 L 3.671875 -77.921875 L 3.671875 -83.03125 L 30.25 -83.03125 L 30.25 -79.109375 C 26.769531 -79.109375 24.554688 -78.195312 23.609375 -76.375 C 22.660156 -74.5625 22.1875 -72.351562 22.1875 -69.75 L 22.1875 -39.859375 C 22.1875 -32.972656 22.796875 -27.019531 24.015625 -22 C 25.242188 -16.976562 27.65625 -12.863281 31.25 -9.65625 C 34.851562 -6.457031 40.015625 -4.859375 46.734375 -4.859375 C 54.953125 -4.859375 61.054688 -7.6875 65.046875 -13.34375 C 69.046875 -19 71.125 -26.6875 71.28125 -36.40625 L 71.640625 -69.75 C 71.640625 -73.0625 71.757812 -75.90625 72 -78.28125 L 63.578125 -77.8125 L 63.578125 -83.03125 L 85.640625 -83.03125 L 85.640625 -79.109375 C 82.785156 -79.035156 80.765625 -78.40625 79.578125 -77.21875 C 78.398438 -76.03125 77.726562 -74.625 77.5625 -73 C 77.40625 -71.382812 77.328125 -68.5625 77.328125 -64.53125 L 77.09375 -37 C 77.019531 -25.539062 74.472656 -16.191406 69.453125 -8.953125 C 64.429688 -1.722656 56.34375 1.890625 45.1875 1.890625 Z M 45.1875 1.890625 "/></g></g></g><g fill="#000000" fill-opacity="1"><g transform="translate(542.603208, 118.946665)"><g><path d="M 24.671875 -3.921875 C 28.066406 -4.078125 30.257812 -5.023438 31.25 -6.765625 C 32.238281 -8.503906 32.734375 -11.191406 32.734375 -14.828125 L 32.734375 -18.5 L 32.859375 -78.640625 L 20.640625 -78.515625 C 15.734375 -78.515625 12.234375 -76.875 10.140625 -73.59375 C 8.046875 -70.3125 7 -65.113281 7 -58 L 2.609375 -58 L 3.328125 -83.03125 L 72.46875 -83.03125 L 73.1875 -58 L 68.671875 -58 C 68.597656 -62.976562 68.101562 -66.953125 67.1875 -69.921875 C 66.28125 -72.890625 64.738281 -75.101562 62.5625 -76.5625 C 60.394531 -78.019531 57.289062 -78.75 53.25 -78.75 L 43.171875 -78.75 L 43.0625 -14.109375 C 43.0625 -9.921875 42.941406 -6.800781 42.703125 -4.75 L 52.546875 -5.21875 L 52.546875 0 L 24.671875 0 Z M 24.671875 -3.921875 "/></g></g></g><g fill="#000000" fill-opacity="1"><g transform="translate(713.391084, 118.946665)"><g><path d="M 6.53125 -3.921875 C 9.289062 -3.992188 11.265625 -4.625 12.453125 -5.8125 C 13.640625 -7 14.3125 -8.398438 14.46875 -10.015625 C 14.625 -11.640625 14.703125 -14.46875 14.703125 -18.5 L 14.703125 -69.75 C 14.703125 -73.0625 14.820312 -75.90625 15.0625 -78.28125 L 6.53125 -77.8125 L 6.53125 -83.03125 L 33.203125 -83.03125 L 33.203125 -79.109375 C 30.441406 -79.035156 28.46875 -78.40625 27.28125 -77.21875 C 26.09375 -76.03125 25.421875 -74.625 25.265625 -73 C 25.109375 -71.382812 25.03125 -68.5625 25.03125 -64.53125 L 25.03125 -14.109375 C 25.03125 -9.921875 24.910156 -6.800781 24.671875 -4.75 L 33.203125 -5.21875 L 33.203125 0 L 6.53125 0 Z M 6.53125 -3.921875 "/></g></g></g><g fill="#000000" fill-opacity="1"><g transform="translate(848.006558, 118.946665)"><g><path d="M 74.25 8.421875 C 78.914062 12.765625 82.132812 15.707031 83.90625 17.25 C 85.6875 18.800781 87.304688 19.96875 88.765625 20.75 C 90.234375 21.539062 91.722656 21.9375 93.234375 21.9375 L 93.234375 25.859375 L 89.4375 25.859375 C 85.957031 25.859375 83.304688 25.757812 81.484375 25.5625 C 79.660156 25.363281 77.78125 24.789062 75.84375 23.84375 C 73.90625 22.894531 71.753906 21.351562 69.390625 19.21875 C 67.171875 17.238281 64.484375 14.585938 61.328125 11.265625 C 57.921875 7.867188 55.25 5.457031 53.3125 4.03125 C 51.375 2.601562 49.21875 1.890625 46.84375 1.890625 C 37.519531 1.734375 29.753906 -0.457031 23.546875 -4.6875 C 17.335938 -8.914062 12.769531 -14.289062 9.84375 -20.8125 C 6.914062 -27.332031 5.453125 -34.234375 5.453125 -41.515625 C 5.453125 -48.546875 7.015625 -55.382812 10.140625 -62.03125 C 13.265625 -68.675781 17.929688 -74.148438 24.140625 -78.453125 C 30.347656 -82.765625 37.878906 -84.921875 46.734375 -84.921875 C 55.828125 -84.921875 63.554688 -82.765625 69.921875 -78.453125 C 76.285156 -74.148438 81.046875 -68.675781 84.203125 -62.03125 C 87.367188 -55.382812 88.953125 -48.546875 88.953125 -41.515625 C 88.953125 -35.503906 87.765625 -29.515625 85.390625 -23.546875 C 83.023438 -17.578125 79.445312 -12.394531 74.65625 -8 C 69.875 -3.613281 64.082031 -0.671875 57.28125 0.828125 C 60.53125 0.910156 63.359375 1.425781 65.765625 2.375 C 68.179688 3.320312 71.007812 5.335938 74.25 8.421875 Z M 17.078125 -43.640625 C 17.078125 -37.398438 18.222656 -31.132812 20.515625 -24.84375 C 22.804688 -18.5625 26.285156 -13.34375 30.953125 -9.1875 C 35.617188 -5.039062 41.273438 -2.96875 47.921875 -2.96875 C 54.085938 -2.96875 59.363281 -4.722656 63.75 -8.234375 C 68.132812 -11.753906 71.453125 -16.28125 73.703125 -21.8125 C 75.960938 -27.351562 77.09375 -33.171875 77.09375 -39.265625 C 77.09375 -45.984375 75.867188 -52.484375 73.421875 -58.765625 C 70.972656 -65.054688 67.414062 -70.195312 62.75 -74.1875 C 58.082031 -78.1875 52.625 -80.1875 46.375 -80.1875 C 40.207031 -80.1875 34.910156 -78.425781 30.484375 -74.90625 C 26.054688 -71.382812 22.710938 -66.816406 20.453125 -61.203125 C 18.203125 -55.585938 17.078125 -49.734375 17.078125 -43.640625 Z M 17.078125 -43.640625 "/></g></g></g><g fill="#000000" fill-opacity="1"><g transform="translate(1037.295765, 118.946665)"><g><path d="M 45.1875 1.890625 C 36.8125 1.890625 30.191406 0.410156 25.328125 -2.546875 C 20.460938 -5.515625 16.984375 -10.0625 14.890625 -16.1875 C 12.796875 -22.3125 11.75 -30.398438 11.75 -40.453125 L 11.75 -64.53125 C 11.75 -69.582031 11.90625 -74.164062 12.21875 -78.28125 L 3.671875 -77.921875 L 3.671875 -83.03125 L 30.25 -83.03125 L 30.25 -79.109375 C 26.769531 -79.109375 24.554688 -78.195312 23.609375 -76.375 C 22.660156 -74.5625 22.1875 -72.351562 22.1875 -69.75 L 22.1875 -39.859375 C 22.1875 -32.972656 22.796875 -27.019531 24.015625 -22 C 25.242188 -16.976562 27.65625 -12.863281 31.25 -9.65625 C 34.851562 -6.457031 40.015625 -4.859375 46.734375 -4.859375 C 54.953125 -4.859375 61.054688 -7.6875 65.046875 -13.34375 C 69.046875 -19 71.125 -26.6875 71.28125 -36.40625 L 71.640625 -69.75 C 71.640625 -73.0625 71.757812 -75.90625 72 -78.28125 L 63.578125 -77.8125 L 63.578125 -83.03125 L 85.640625 -83.03125 L 85.640625 -79.109375 C 82.785156 -79.035156 80.765625 -78.40625 79.578125 -77.21875 C 78.398438 -76.03125 77.726562 -74.625 77.5625 -73 C 77.40625 -71.382812 77.328125 -68.5625 77.328125 -64.53125 L 77.09375 -37 C 77.019531 -25.539062 74.472656 -16.191406 69.453125 -8.953125 C 64.429688 -1.722656 56.34375 1.890625 45.1875 1.890625 Z M 45.1875 1.890625 "/></g></g></g><g fill="#000000" fill-opacity="1"><g transform="translate(1221.366683, 118.946665)"><g><path d="M 6.53125 -3.921875 C 9.289062 -3.992188 11.265625 -4.625 12.453125 -5.8125 C 13.640625 -7 14.3125 -8.398438 14.46875 -10.015625 C 14.625 -11.640625 14.703125 -14.46875 14.703125 -18.5 L 14.703125 -69.75 C 14.703125 -73.0625 14.820312 -75.90625 15.0625 -78.28125 L 6.53125 -77.8125 L 6.53125 -83.03125 L 63.578125 -83.03125 L 64.171875 -62.265625 L 60.25 -62.265625 C 60.25 -68.753906 58.84375 -73.179688 56.03125 -75.546875 C 53.226562 -77.921875 49.296875 -79.03125 44.234375 -78.875 L 34.046875 -78.640625 C 31.191406 -78.554688 29.128906 -78.019531 27.859375 -77.03125 C 26.597656 -76.039062 25.8125 -74.65625 25.5 -72.875 C 25.1875 -71.101562 25.03125 -68.320312 25.03125 -64.53125 L 25.03125 -45.546875 L 47.328125 -45.421875 L 46.5 -55.625 L 51.71875 -55.625 L 51.71875 -30.71875 L 47.796875 -30.71875 C 47.796875 -33.644531 47.441406 -35.878906 46.734375 -37.421875 C 46.023438 -38.960938 44.9375 -39.988281 43.46875 -40.5 C 42.007812 -41.019531 39.972656 -41.28125 37.359375 -41.28125 L 33.6875 -41.15625 L 25.03125 -40.796875 L 25.03125 -13.640625 C 25.03125 -9.523438 24.910156 -6.441406 24.671875 -4.390625 L 47.328125 -4.75 C 52.859375 -4.820312 57.085938 -6.222656 60.015625 -8.953125 C 62.941406 -11.679688 64.40625 -16.40625 64.40625 -23.125 L 68.4375 -23.125 L 67.71875 0 L 6.53125 0 Z M 6.53125 -3.921875 "/></g></g></g></g></g></svg>